<svg xmlns="http://www.w3.org/2000/svg" width="31" height="31" viewBox="0 0 31 31"><g><g><path fill="#fff" d="M27.984 15.673c0-2.177.18-6.851-.601-8.821a5.05 5.05 0 0 0-2.845-2.845c-1.963-.775-6.644-.601-8.821-.601-2.177 0-6.852-.18-8.822.601a5.05 5.05 0 0 0-2.844 2.845c-.775 1.963-.601 6.644-.601 8.821 0 2.177-.18 6.852.6 8.822a5.05 5.05 0 0 0 2.845 2.844c1.964.775 6.645.601 8.822.601 2.177 0 6.851.18 8.821-.6a5.05 5.05 0 0 0 2.845-2.845c.781-1.964.6-6.645.6-8.822zm2.59 6.17c-.12 2.398-.667 4.521-2.417 6.27-1.75 1.757-3.873 2.305-6.27 2.418-2.47.14-9.877.14-12.347 0-2.398-.12-4.515-.668-6.27-2.417-1.757-1.75-2.305-3.873-2.418-6.27-.14-2.471-.14-9.877 0-12.348.12-2.397.661-4.52 2.417-6.27C5.025 1.476 7.15.929 9.54.815c2.471-.14 9.877-.14 12.348 0 2.397.12 4.52.668 6.27 2.417 1.757 1.75 2.304 3.874 2.418 6.27.14 2.472.14 9.87 0 12.341zM25.494 7.686c0 .995-.801 1.79-1.79 1.79a1.79 1.79 0 1 1 1.79-1.79zm-4.788 7.987a4.993 4.993 0 0 0-4.988-4.988 4.993 4.993 0 0 0-4.989 4.988 4.997 4.997 0 0 0 4.989 4.988 4.997 4.997 0 0 0 4.988-4.988zm2.684 0a7.66 7.66 0 0 1-7.672 7.673 7.66 7.66 0 0 1-7.673-7.673A7.66 7.66 0 0 1 15.717 8a7.66 7.66 0 0 1 7.672 7.673z"></path></g></g></svg>