<svg xmlns="http://www.w3.org/2000/svg" width="115" height="114" viewBox="0 0 115 114"><g><g><g><path fill="#fff" d="M101.34 56.044L83.53 33.393l9.09-5.78 16.641 21.615zm-9.072 16.36L67.18 47.316a2.25 2.25 0 0 0-1.43-.653l-12.297-.872a2.286 2.286 0 0 0-2.115 1.134l-6.324 11.16a3.427 3.427 0 0 1-2.081 1.624 3.428 3.428 0 0 1-2.62-.323 3.427 3.427 0 0 1-1.624-2.082 3.423 3.423 0 0 1 .323-2.62l8.442-14.899 3.421-.984.067-.023 12.768-3.687h15.426l19.258 24.482zm-.932 10.306a3.452 3.452 0 0 1-4.877 0 2.041 2.041 0 0 0-.153-.137l-14.459-14.61a2.248 2.248 0 0 0-3.197 3.163l14.615 14.767.006.005a3.454 3.454 0 0 1 0 4.879 3.427 3.427 0 0 1-2.44 1.01 3.424 3.424 0 0 1-2.439-1.01l-9.777-9.879a2.248 2.248 0 1 0-3.196 3.164l9.628 9.727c.049.061.101.12.157.176a3.454 3.454 0 0 1 0 4.878 3.455 3.455 0 0 1-4.88 0L64.99 93.45a2.248 2.248 0 1 0-3.197 3.162l5.187 5.24c.05.062.102.122.159.178a3.454 3.454 0 0 1 0 4.878 3.452 3.452 0 0 1-4.878 0c-.155-.155-.337-.274-.51-.407-.147-.112-.186-.19-.112-.368.074-.181.185-.345.26-.527.082-.203.149-.412.213-.622a8.107 8.107 0 0 0 .292-3.46 7.913 7.913 0 0 0-3.36-5.472 7.894 7.894 0 0 0-3.344-1.296c.58-2.555-.116-5.325-1.925-7.237a7.888 7.888 0 0 0-5.902-2.485c.048-2.065-.702-4.116-2.126-5.62a7.89 7.89 0 0 0-5.664-2.486 8.085 8.085 0 0 0-1.918.204 7.885 7.885 0 0 0-2.629-4.819 7.882 7.882 0 0 0-5.082-1.928 7.965 7.965 0 0 0-5.428 2.042l-8.693-11.713 20.795-25.333 6.627 1.813L35.1 52.468a7.893 7.893 0 0 0-.745 6.036 7.893 7.893 0 0 0 4.119 4.995 7.895 7.895 0 0 0 5.66.545 7.896 7.896 0 0 0 4.794-3.74l5.624-9.926 10.043.712 26.743 26.742a3.455 3.455 0 0 1 0 4.878zM49.39 107.805a3.453 3.453 0 0 1 0-4.878l2.742-2.742a3.622 3.622 0 0 1 .265-.24c.447-.361.97-.604 1.53-.71l.04-.005c.095-.017.193-.031.291-.04.04-.004.08-.004.12-.006.08-.005.16-.01.24-.009a3.427 3.427 0 0 1 2.683 1.342c1.034 1.352.895 3.36-.388 4.644l-2.645 2.645a3.453 3.453 0 0 1-4.878-.001zm-9.144-7.07a3.423 3.423 0 0 1-1.01-2.438c0-.92.358-1.787 1.01-2.439l5.316-5.316c1.09-1.089 2.836-1.323 4.17-.547 1.218.708 1.855 2.1 1.646 3.485a3.644 3.644 0 0 1-1.022 2.024l-5.232 5.232a3.427 3.427 0 0 1-2.439 1.01 3.427 3.427 0 0 1-2.439-1.01zm-8.028-8.105a3.423 3.423 0 0 1-1.01-2.438c0-.922.358-1.788 1.01-2.44l5.317-5.316a3.486 3.486 0 0 1 3.921-.678c1.342.64 2.097 2.097 1.9 3.562a3.64 3.64 0 0 1-1.027 2.078l-5.233 5.232a3.427 3.427 0 0 1-2.439 1.01 3.427 3.427 0 0 1-2.439-1.01zm-7.054-13.995l2.742-2.742a3.442 3.442 0 0 1 2.133-.996l.058-.002c.098-.008.196-.013.295-.012.94.013 1.813.397 2.46 1.08 1.27 1.343 1.202 3.537-.152 4.892l-2.659 2.659a3.453 3.453 0 0 1-4.877 0 3.454 3.454 0 0 1 0-4.879zM23.88 27.587l9.085 5.777L13.203 57.44l-7.92-6.817zm90.242 20.585L94.929 23.24a2.249 2.249 0 0 0-2.988-.524l-12.392 7.88H63.387c-.21 0-.417.045-.619.104l-12.53 3.607-13.003-3.556L24.6 22.715a2.248 2.248 0 0 0-2.956.484L.414 49.495a2.248 2.248 0 0 0 .284 3.116l11.127 9.576 9.983 13.452c-2.92 3.11-2.863 8.016.174 11.055a7.912 7.912 0 0 0 4.82 2.282 7.998 7.998 0 0 0-.092 1.216c0 2.122.826 4.118 2.327 5.618a7.895 7.895 0 0 0 5.62 2.328l.084-.002c0 .054-.003.107-.003.161 0 2.123.826 4.119 2.327 5.62a7.898 7.898 0 0 0 5.62 2.327c.418 0 .833-.034 1.24-.097a7.906 7.906 0 0 0 2.285 4.838 7.918 7.918 0 0 0 5.619 2.324c2.035 0 4.07-.774 5.62-2.324l1.214-1.215.51.411a7.919 7.919 0 0 0 5.526 2.232c2.035 0 4.07-.774 5.619-2.324a7.923 7.923 0 0 0 2.323-5.743 7.931 7.931 0 0 0 8.066-8.063 7.902 7.902 0 0 0 5.743-2.326 7.923 7.923 0 0 0 2.323-5.744 7.926 7.926 0 0 0 5.743-2.322c2.699-2.699 3.046-6.87 1.045-9.948l7.289-15.265 10.958-9.43a2.248 2.248 0 0 0 .315-3.076z"/></g><g><path fill="#fff" d="M69.389 26.373c.575 0 1.151-.22 1.59-.658l15.36-15.36a2.248 2.248 0 1 0-3.18-3.18l-15.36 15.36a2.248 2.248 0 0 0 1.59 3.838z"/></g><g><path fill="#fff" d="M43.527 25.715c.439.439 1.015.658 1.59.658a2.248 2.248 0 0 0 1.59-3.839l-15.36-15.36a2.248 2.248 0 1 0-3.18 3.18z"/></g><g><path fill="#fff" d="M57.253 26.373a2.249 2.249 0 0 0 2.248-2.248V11.413a2.249 2.249 0 0 0-4.496 0v12.712a2.249 2.249 0 0 0 2.248 2.248z"/></g><g><path fill="#fff" d="M55.178 3.264a2.262 2.262 0 0 0 2.185 1.384 2.27 2.27 0 0 0 2.03-1.557A2.266 2.266 0 0 0 58.62.62a2.273 2.273 0 0 0-2.616-.086c-.887.586-1.23 1.753-.827 2.73z"/></g></g></g></svg>