<svg xmlns="http://www.w3.org/2000/svg" width="101" height="115" viewBox="0 0 101 115"><g><g><g><g><path fill="#fff" d="M85.524 96.508a2.24 2.24 0 0 0-2.751 1.588l-2.297 8.68-12.628-21.874a4.492 4.492 0 0 1 4.08-1.137 8.948 8.948 0 0 0 7.542-1.75 8.958 8.958 0 0 0 2.791-3.815L94.19 98.858zM59.843 86.62a4.49 4.49 0 0 1-3.789-.85 8.968 8.968 0 0 0-11.108 0 4.487 4.487 0 0 1-3.789.85 4.488 4.488 0 0 1-3.044-2.41 8.964 8.964 0 0 0-10.008-4.82 4.487 4.487 0 0 1-3.782-.877 4.488 4.488 0 0 1-1.697-3.493 8.963 8.963 0 0 0-6.926-8.684 4.488 4.488 0 0 1-3.027-2.432 4.489 4.489 0 0 1-.014-3.883 8.964 8.964 0 0 0-2.472-10.83 4.488 4.488 0 0 1-1.672-3.504c0-1.367.61-2.644 1.672-3.504a8.964 8.964 0 0 0 2.472-10.83 4.487 4.487 0 0 1 .014-3.882A4.488 4.488 0 0 1 15.7 25.04a8.963 8.963 0 0 0 6.926-8.684 4.487 4.487 0 0 1 1.697-3.493 4.487 4.487 0 0 1 3.782-.877 8.965 8.965 0 0 0 10.008-4.82 4.488 4.488 0 0 1 3.044-2.41 4.489 4.489 0 0 1 3.789.85 8.963 8.963 0 0 0 11.108 0 4.489 4.489 0 0 1 3.789-.85 4.488 4.488 0 0 1 3.044 2.41 8.965 8.965 0 0 0 10.008 4.82 4.486 4.486 0 0 1 3.782.877 4.488 4.488 0 0 1 1.697 3.493A8.963 8.963 0 0 0 85.3 25.04a4.488 4.488 0 0 1 3.027 2.432 4.489 4.489 0 0 1 .014 3.883 8.964 8.964 0 0 0 2.472 10.83 4.488 4.488 0 0 1 1.672 3.503c0 1.368-.61 2.645-1.672 3.505a8.964 8.964 0 0 0-2.472 10.83 4.487 4.487 0 0 1-.014 3.882 4.488 4.488 0 0 1-3.027 2.432 8.963 8.963 0 0 0-6.926 8.684 4.487 4.487 0 0 1-1.697 3.493 4.488 4.488 0 0 1-3.782.877 8.963 8.963 0 0 0-10.008 4.82 4.489 4.489 0 0 1-3.044 2.41zm-39.32 20.154l-2.296-8.678a2.24 2.24 0 0 0-2.751-1.59L6.81 98.859 18.74 78.2a8.96 8.96 0 0 0 2.791 3.816 8.948 8.948 0 0 0 7.542 1.749 4.494 4.494 0 0 1 4.08 1.137zm80.26-5.453L83.942 72.15a4.497 4.497 0 0 1 2.386-1.452 8.948 8.948 0 0 0 6.036-4.849 8.948 8.948 0 0 0 .027-7.741 4.496 4.496 0 0 1 1.24-5.432 8.949 8.949 0 0 0 3.335-6.987 8.948 8.948 0 0 0-3.335-6.986 4.496 4.496 0 0 1-1.24-5.432 8.948 8.948 0 0 0-.027-7.742 8.948 8.948 0 0 0-6.036-4.848 4.496 4.496 0 0 1-3.474-4.356 8.948 8.948 0 0 0-3.383-6.963 8.948 8.948 0 0 0-7.542-1.75 4.496 4.496 0 0 1-5.02-2.416A8.948 8.948 0 0 0 60.84.389a8.948 8.948 0 0 0-7.554 1.696 4.495 4.495 0 0 1-5.571 0A8.95 8.95 0 0 0 40.16.39a8.948 8.948 0 0 0-6.07 4.806 4.496 4.496 0 0 1-5.019 2.417A8.949 8.949 0 0 0 21.53 9.36a8.948 8.948 0 0 0-3.384 6.963 4.496 4.496 0 0 1-3.474 4.356 8.948 8.948 0 0 0-6.035 4.848 8.948 8.948 0 0 0-.028 7.742A4.496 4.496 0 0 1 7.37 38.7a8.949 8.949 0 0 0-3.334 6.987 8.948 8.948 0 0 0 3.335 6.987 4.496 4.496 0 0 1 1.24 5.432 8.948 8.948 0 0 0 .027 7.741 8.948 8.948 0 0 0 6.036 4.849c.96.226 1.781.747 2.386 1.452L.216 101.322a2.24 2.24 0 0 0 2.526 3.282l11.731-3.183 3.11 11.75a2.24 2.24 0 0 0 4.105.548L36.06 88.826a8.959 8.959 0 0 0 4.1 2.162 8.951 8.951 0 0 0 7.555-1.696 4.495 4.495 0 0 1 5.57 0 8.946 8.946 0 0 0 7.555 1.696 8.958 8.958 0 0 0 4.1-2.162l14.373 24.893a2.24 2.24 0 0 0 4.105-.547l3.109-11.751 11.731 3.183a2.24 2.24 0 0 0 2.526-3.282z"/></g><g><path fill="#fff" d="M51.811 50.876a2.237 2.237 0 0 0-2.622 0l-5.123 3.7L46 48.56a2.24 2.24 0 0 0-.806-2.491l-5.106-3.751h6.313a2.24 2.24 0 0 0 2.128-1.542l1.97-6.004 1.97 6.004a2.24 2.24 0 0 0 2.129 1.542h6.312l-5.106 3.751a2.24 2.24 0 0 0-.806 2.49l1.935 6.016zm9.345 11.75a2.24 2.24 0 0 0 2.132-2.926l-3.53-10.976 9.31-6.84a2.24 2.24 0 0 0-1.326-4.045h-11.52l-3.594-10.947a2.24 2.24 0 0 0-4.256 0L44.78 37.839H33.259a2.24 2.24 0 0 0-1.326 4.044l9.31 6.84-3.53 10.977a2.24 2.24 0 0 0 3.443 2.502l9.345-6.747 9.345 6.747c.39.283.85.424 1.31.424z"/></g><g><path fill="#fff" d="M81.856 45.688c0-17.29-14.066-31.356-31.356-31.356S19.144 28.4 19.144 45.688c0 13.154 8.304 25.003 20.664 29.486a2.24 2.24 0 0 0 1.527-4.211c-10.594-3.843-17.712-14-17.712-25.275 0-14.82 12.057-26.876 26.877-26.876 14.82 0 26.877 12.057 26.877 26.876 0 11.276-7.119 21.433-17.713 25.275a2.24 2.24 0 1 0 1.527 4.211c12.36-4.482 20.665-16.331 20.665-29.486z"/></g><g><path fill="#fff" d="M50.5 72.565c-.589 0-1.167.24-1.583.656a2.257 2.257 0 0 0-.657 1.583c0 .59.24 1.167.657 1.584.416.417.994.656 1.583.656.59 0 1.167-.24 1.583-.656.417-.417.657-.995.657-1.584 0-.589-.24-1.166-.657-1.583a2.257 2.257 0 0 0-1.583-.656z"/></g></g></g></g></svg>