<svg xmlns="http://www.w3.org/2000/svg" width="106" height="115" viewBox="0 0 106 115"><g><g><g><path fill="#fff" d="M100.931 110.356h-34.25V76.419h7.892v13.638a2.24 2.24 0 0 0 3.407 1.912l5.828-3.56 5.822 3.56a2.239 2.239 0 0 0 3.408-1.912V76.42h7.893v33.937zM7.11 105.359c-1.497 0-2.714-1.2-2.714-2.674V17.352c0-1.475 1.217-2.674 2.714-2.674h16.514v5.221H11.936a2.24 2.24 0 0 0-2.24 2.24v75.76a2.24 2.24 0 0 0 2.24 2.239h50.265v5.221H7.11zm26.556-92.307a2.24 2.24 0 0 0 2.24-2.24V9.189c0-2.508 2.068-4.548 4.61-4.548 2.537 0 4.602 2.04 4.602 4.548v1.625a2.24 2.24 0 0 0 2.24 2.24h5.562v6.846H28.104v-6.847zM64.441 71.94a2.24 2.24 0 0 0-2.24 2.24v21.478H14.176v-71.28h52.672V71.94zm12.187-54.588V71.94h-5.3V22.139a2.24 2.24 0 0 0-2.24-2.24H57.398v-5.221h16.514c1.497 0 2.715 1.2 2.715 2.674zm2.425 59.067h9.505v9.644l-3.581-2.189a2.24 2.24 0 0 0-2.336 0l-3.588 2.191zm24.118-4.48H81.107V17.353c0-3.945-3.227-7.154-7.193-7.154H57.312a2.24 2.24 0 0 0-2.152-1.625h-5.584c-.319-4.692-4.26-8.412-9.06-8.412-4.804 0-8.75 3.72-9.068 8.412h-5.584a2.24 2.24 0 0 0-2.152 1.625H7.11c-3.967 0-7.194 3.21-7.194 7.154v85.333c0 3.945 3.227 7.154 7.194 7.154H62.2v2.756a2.24 2.24 0 0 0 2.24 2.24h38.73a2.24 2.24 0 0 0 2.24-2.24V74.18a2.24 2.24 0 0 0-2.24-2.24z"/></g><g><path fill="#fff" d="M31.74 42.78h-7.778v-7.685h7.778zm2.24-12.164H21.723a2.24 2.24 0 0 0-2.24 2.24V45.02a2.24 2.24 0 0 0 2.24 2.24H33.98a2.24 2.24 0 0 0 2.24-2.24V32.856a2.24 2.24 0 0 0-2.24-2.24z"/></g><g><path fill="#fff" d="M31.74 84.942h-7.778v-7.685h7.778zm2.24-12.164H21.723a2.24 2.24 0 0 0-2.24 2.24v12.164a2.24 2.24 0 0 0 2.24 2.24H33.98a2.24 2.24 0 0 0 2.24-2.24V75.017a2.24 2.24 0 0 0-2.24-2.24z"/></g><g><path fill="#fff" d="M31.74 63.858h-7.778V56.18h7.778zM33.98 51.7H21.723a2.24 2.24 0 0 0-2.24 2.24v12.157a2.24 2.24 0 0 0 2.24 2.24H33.98a2.24 2.24 0 0 0 2.24-2.24V53.94a2.24 2.24 0 0 0-2.24-2.24z"/></g><g><path fill="#fff" d="M59.307 41.307H44.58a2.24 2.24 0 0 0 0 4.48h14.728a2.24 2.24 0 0 0 0-4.48z"/></g><g><path fill="#fff" d="M59.307 32.089H44.58a2.24 2.24 0 0 0 0 4.48h14.728a2.24 2.24 0 0 0 0-4.48z"/></g><g><path fill="#fff" d="M59.307 62.391H44.58a2.24 2.24 0 0 0 0 4.48h14.728a2.24 2.24 0 0 0 0-4.48z"/></g><g><path fill="#fff" d="M59.307 53.166H44.58a2.24 2.24 0 0 0 0 4.48h14.728a2.24 2.24 0 0 0 0-4.48z"/></g><g><path fill="#fff" d="M53.848 83.469h-9.269a2.24 2.24 0 0 0 0 4.48h9.269a2.24 2.24 0 0 0 0-4.48z"/></g><g><path fill="#fff" d="M53.848 74.25h-9.269a2.24 2.24 0 0 0 0 4.48h9.269a2.24 2.24 0 0 0 0-4.48z"/></g></g></g></svg>