<?xml version="1.0" encoding="utf-8"?>
<!-- Generator: Adobe Illustrator 25.1.0, SVG Export Plug-In . SVG Version: 6.00 Build 0)  -->
<svg version="1.1" id="Layer_1" xmlns="http://www.w3.org/2000/svg" xmlns:xlink="http://www.w3.org/1999/xlink" x="0px" y="0px"
	 viewBox="0 0 147.7 36.4" style="enable-background:new 0 0 147.7 36.4;" xml:space="preserve">
<style type="text/css">
	.st0{fill-rule:evenodd;clip-rule:evenodd;fill:#B20000;}
	.st1{fill-rule:evenodd;clip-rule:evenodd;fill:#FF0D00;}
	.st2{fill-rule:evenodd;clip-rule:evenodd;fill:#190000;}
</style>
<g id="Warstwa_x0020_1">
	<polygon class="st0" points="31.9,27.6 23.9,4.6 23.9,23 	"/>
	<polygon class="st1" points="31.9,27.6 31.9,9.3 23.9,4.6 	"/>
	<polygon class="st1" points="31.9,27.6 16,27.6 23.9,23 	"/>
	<polygon class="st0" points="31.9,27.6 16,36.8 16,27.6 	"/>
	<polygon class="st1" points="0,9.2 8,32.2 8,13.8 	"/>
	<polygon class="st0" points="0,9.2 0,27.5 8,32.2 	"/>
	<polygon class="st0" points="0,9.2 15.9,9.2 8,13.8 	"/>
	<polygon class="st1" points="0,9.2 15.9,0 15.9,9.2 	"/>
	<path class="st2" d="M60.8,9.2v11.4c0,2.5-0.7,4.2-2,5.2c-1.4,1-3.3,1.5-5.9,1.5c-1.5,0-3.2-0.1-4.8-0.4v-4.1
		c1.8,0.3,3.2,0.5,4.4,0.5c1.9,0,2.8-0.8,2.8-2.5V9.2C55.2,9.2,60.8,9.2,60.8,9.2z"/>
	<path class="st2" d="M76.5,21.6v-6.5c0-0.9-0.2-1.6-0.7-2c-0.5-0.4-1.4-0.6-2.9-0.6c-1.4,0-2.4,0.2-2.9,0.6c-0.5,0.4-0.7,1.1-0.7,2
		l0,6.5c0,0.9,0.2,1.5,0.7,1.9c0.5,0.4,1.4,0.5,2.9,0.5c1.5,0,2.4-0.2,2.9-0.5C76.2,23.1,76.5,22.5,76.5,21.6z M81.7,15.9V21
		c0,1.1-0.2,2.1-0.5,2.9c-0.4,0.8-0.8,1.4-1.3,1.9c-0.5,0.4-1.2,0.8-2.1,1c-0.8,0.2-1.6,0.4-2.3,0.4c-0.7,0.1-1.6,0.1-2.6,0.1
		c-1,0-1.9,0-2.6-0.1c-0.7-0.1-1.5-0.2-2.3-0.4c-0.8-0.2-1.5-0.6-2.1-1c-0.5-0.4-1-1.1-1.3-1.9c-0.4-0.8-0.5-1.8-0.5-2.9v-5.1
		c0-1.2,0.2-2.2,0.6-3.1c0.4-0.8,0.8-1.5,1.4-1.9c0.5-0.5,1.2-0.8,2.1-1.1c0.9-0.2,1.6-0.4,2.3-0.5c0.7-0.1,1.5-0.1,2.5-0.1
		c1,0,1.8,0,2.5,0.1c0.7,0.1,1.4,0.2,2.3,0.5c0.9,0.3,1.6,0.6,2.1,1.1c0.5,0.5,1,1.1,1.4,1.9C81.5,13.7,81.7,14.7,81.7,15.9z"/>
	<path class="st2" d="M101.5,26.9h-5.2v-12c0-0.9-0.2-1.6-0.5-1.9c-0.3-0.3-1.1-0.5-2.3-0.5c-1.5,0-2.5,0.2-2.9,0.5
		c-0.4,0.3-0.6,1-0.6,1.9v12h-5.2V9.6H90v2.1c0.4-1.6,2.2-2.5,5.5-2.5c2.3,0,3.9,0.4,4.7,1.2c0.9,0.8,1.3,2.1,1.3,3.7V26.9z"/>
	<polygon class="st2" points="110.6,26.9 105.3,26.9 105.3,9.6 110.6,9.6 	"/>
	<path class="st2" d="M125.4,16.7v-2.5c0-0.5-0.2-1-0.7-1.3c-0.4-0.3-1.2-0.4-2.4-0.4c-1.3,0-2.1,0.1-2.6,0.4
		c-0.4,0.3-0.7,0.7-0.7,1.3l0,2.5C119.1,16.7,125.4,16.7,125.4,16.7z M130.3,19.7h-11.2v1.6c0,1,0.3,1.7,1,2.1
		c0.7,0.4,2,0.7,3.9,0.7c1.7,0,3.6-0.2,5.8-0.7v3.3c-2.2,0.5-4.5,0.7-6.8,0.7c-6.1,0-9.2-1.9-9.2-5.6l0-6.2c0-2.2,0.7-3.8,2.1-4.8
		c1.4-0.9,3.6-1.4,6.4-1.4c2.7,0,4.7,0.5,6,1.4c1.3,0.9,2,2.5,2,4.8L130.3,19.7z"/>
	<path class="st2" d="M147.7,26.7c-2.1,0.4-4,0.6-5.9,0.6c-0.9,0-1.6,0-2.1,0c-0.5,0-1.2-0.1-2-0.2c-0.8-0.1-1.4-0.3-1.9-0.6
		c-0.5-0.3-1-0.6-1.5-1c-0.5-0.4-0.8-1-1.1-1.7c-0.2-0.7-0.4-1.5-0.4-2.5l0-5.7c0-0.9,0.1-1.6,0.3-2.3c0.2-0.7,0.5-1.2,0.8-1.6
		c0.3-0.4,0.7-0.8,1.2-1.1c0.5-0.3,1-0.5,1.5-0.7c0.5-0.2,1-0.3,1.8-0.4c0.7-0.1,1.3-0.1,1.8-0.2c0.5,0,1.1,0,1.9,0
		c1.3,0,3.1,0.2,5.2,0.6l0,3.4c-2.5-0.6-4.4-0.9-5.6-0.9c-2.4,0-3.6,0.8-3.6,2.4v6.4c0,1.8,1.3,2.7,4,2.7c1.2,0,3.1-0.3,5.5-0.8
		L147.7,26.7L147.7,26.7z"/>
</g>
</svg>
