<svg xmlns="http://www.w3.org/2000/svg" width="39" height="52" viewBox="0 0 39 52"><g><g><path fill="#fff" d="M26.312 35.537c4.076-.293 4.744.638 4.33.91zm12.533-23.206v.617H25.897V0h.607c.647 0 1.264.253 1.72.708l9.913 9.914a2.42 2.42 0 0 1 .708 1.71zM24.278 33.565c-2.023-1.234-3.368-2.934-4.32-5.443.456-1.871 1.174-4.714.628-6.494-.475-2.974-4.29-2.68-4.835-.688-.506 1.851-.04 4.461.819 7.79-1.173 2.791-2.903 6.534-4.127 8.679-.01 0-.01.01-.02.01-2.742 1.406-7.446 4.502-5.514 6.879.567.698 1.619 1.011 2.175 1.011 1.81 0 3.612-1.82 6.181-6.251 2.61-.86 5.473-1.932 7.992-2.347 2.195 1.194 4.764 1.973 6.474 1.973 2.954 0 3.156-3.238 1.993-4.39-1.406-1.377-5.493-.982-7.446-.73zm.81-17.38h13.757v33.181a2.422 2.422 0 0 1-2.427 2.428H2.428A2.422 2.422 0 0 1 0 49.366V2.428A2.422 2.422 0 0 1 2.428 0H22.66v13.758a2.435 2.435 0 0 0 2.428 2.428zM12.24 39.24c-2.195 3.52-3.53 4.147-3.53 4.067zm9.479-4.43c-2.418.475-4.512 1.506-6.363 2.215 1.123-1.963 2.094-4.3 2.873-6.343.971 1.76 2.205 3.156 3.49 4.127zm-3.318-8.903c-.506-1.619-.496-4.744-.202-4.744z"/></g></g></svg>