<?xml version="1.0" encoding="utf-8"?>
<!-- Generator: Adobe Illustrator 16.0.3, SVG Export Plug-In . SVG Version: 6.00 Build 0)  -->
<!DOCTYPE svg PUBLIC "-//W3C//DTD SVG 1.1//EN" "http://www.w3.org/Graphics/SVG/1.1/DTD/svg11.dtd">
<svg version="1.1" id="Tryb_izolacji" xmlns="http://www.w3.org/2000/svg" xmlns:xlink="http://www.w3.org/1999/xlink" x="0px"
	 y="0px" width="661.729px" height="111.058px" viewBox="0 0 661.729 111.058" enable-background="new 0 0 661.729 111.058"
	 xml:space="preserve">
<path fill="#878786" d="M264.521,67.035c0-8.88-4.217-13.246-14.133-17.166l-7.029-2.813c-4.588-1.849-5.846-2.811-5.846-5.032
	c0-3.032,2.443-3.921,7.252-3.921c6.511,0,10.95,0.445,16.944,0.962v-10.36c-3.773-0.813-10.285-1.997-17.906-1.997
	c-14.872,0-23.16,4.366-23.16,15.908c0,9.694,5.254,13.396,13.393,16.797l7.252,3.108c4.809,1.997,6.067,2.96,6.067,5.476
	c0,3.255-1.997,4.81-7.104,4.81c-8.213,0-13.17-0.52-18.127-0.889v10.655c4.291,0.888,12.356,1.775,20.643,1.775
	C255.938,84.349,264.521,79.243,264.521,67.035"/>
<polygon fill="#878786" points="318.426,39.73 318.426,28.041 270.108,28.041 270.108,39.73 285.573,39.73 285.573,83.018 
	302.961,83.018 302.961,39.73 "/>
<path fill="#878786" d="M376.122,28.04h-17.167l-6.142,13.097c-1.035,2.515-2.367,5.698-3.254,8.361h-0.297
	c-0.889-2.737-2.072-5.846-3.108-8.361l-6.14-13.097h-17.39L340.976,64v19.019h16.796V64L376.122,28.04z"/>
<path fill="#878786" d="M410.585,46.243c0,5.031-2.442,6.807-9.249,6.807h-4.515V39.214h4.292c6.955,0,9.472,1.331,9.472,6.584
	V46.243z M430.858,83.018L419.39,61.115c4.958-2.886,7.917-7.251,7.917-15.168v-0.444c0-15.687-12.505-18.35-26.785-18.35
	c-8.064,0-14.207,0.443-20.2,0.887v54.978h16.574V64.149h3.552h3.183l10.358,18.868H430.858z"/>
<path fill="#878786" d="M469.491,57.86c0,10.877-2.812,13.909-8.287,13.909s-8.287-3.032-8.287-13.909v-4.663
	c0-10.656,2.59-13.911,8.287-13.911c5.624,0,8.287,3.255,8.287,13.911V57.86z M486.51,57.934v-4.736
	c0-20.495-10.951-26.489-25.306-26.489s-25.306,5.994-25.306,26.489v4.736c0,20.348,10.729,26.415,25.306,26.415
	S486.51,78.281,486.51,57.934"/>
<path fill="#878786" d="M527.611,44.393c0,3.921-1.405,5.845-7.917,5.845h-5.92V38.621c1.703-0.073,2.96-0.073,4.588-0.073
	c6.29,0,9.249,0.739,9.249,5.327V44.393z M527.76,66.444c0,4.956-2.813,5.993-9.397,5.993c-1.775,0-2.959,0-4.588-0.075V59.783
	h6.067c6.142,0,7.845,1.851,7.918,5.845V66.444z M544.334,66.591V65.85c0-4.068-1.554-8.73-6.29-10.95
	c4.293-2.293,5.994-6.438,5.994-11.173v-0.666c0-12.728-9.767-15.983-27.304-15.983c-5.697,0-10.729,0.222-19.534,0.962v54.978
	c8.14,0.666,13.245,0.963,19.387,0.963C533.311,83.98,544.334,80.946,544.334,66.591"/>
<path fill="#878786" d="M602.353,60.967V28.04H585.26v32.704c0,8.362-1.553,11.396-7.769,11.396s-7.77-3.034-7.77-11.396V28.04
	h-17.093v32.927c0,15.836,9.323,23.382,24.862,23.382C592.956,84.349,602.353,76.803,602.353,60.967"/>
<path fill="#878786" d="M644.637,57.563c0,11.396-2.367,14.206-10.285,14.206h-4.439V39.287h4.439
	c7.918,0,10.285,2.515,10.285,13.911V57.563z M661.729,57.563v-4.366c0-18.72-8.729-26.119-27.969-26.119
	c-7.918,0-13.245,0.296-20.719,0.962v54.977c7.474,0.666,13.023,0.962,20.719,0.962C653.22,83.979,661.729,76.581,661.729,57.563"/>
<polygon fill-rule="evenodd" clip-rule="evenodd" fill="#878786" points="177.404,111.058 44.711,111.058 57.979,97.788 
	164.135,97.788 "/>
<polygon fill-rule="evenodd" clip-rule="evenodd" fill="#878786" points="150.865,84.52 71.251,84.52 84.52,71.25 137.595,71.25 "/>
<polygon fill-rule="evenodd" clip-rule="evenodd" fill="#878786" points="124.327,57.981 97.789,57.981 111.057,44.711 "/>
<polygon fill-rule="evenodd" clip-rule="evenodd" fill="#FFDD00" points="0,111.058 111.058,0 222.115,111.058 199.76,111.058 
	111.058,22.354 22.355,111.058 "/>
</svg>
