<svg xmlns="http://www.w3.org/2000/svg" width="115" height="96" viewBox="0 0 115 96"><g><g><g><path fill="#fff" d="M111.23 83.715h-7.859a122.187 122.187 0 0 0-44.438 8.331v-2.92l.683-.267a103.832 103.832 0 0 1 38.009-7.176h6.92a3.114 3.114 0 0 0 3.11-3.11V68.22a1.68 1.68 0 1 0-3.36 0v4.056h-6.67c-13.287 0-26.3 2.421-38.692 7.197V55.067a1.68 1.68 0 1 0-3.36 0v24.406a107.178 107.178 0 0 0-38.692-7.197H10.21v-50.77h6.671c7.24 0 14.492.76 21.577 2.258v4.577a99.308 99.308 0 0 0-1.874-.398 2.15 2.15 0 0 0-2.573 2.108v15.16a2.14 2.14 0 0 0 1.794 2.116 114.47 114.47 0 0 1 12.55 2.833 2.16 2.16 0 0 0 1.885-.35 2.157 2.157 0 0 0 .854-1.713V39.54l4.48 2.586v5.1a1.68 1.68 0 1 0 3.359 0v-5.1l4.48-2.586v8.556c0 .67.318 1.31.853 1.713a2.16 2.16 0 0 0 1.884.35 114.41 114.41 0 0 1 12.55-2.833 2.14 2.14 0 0 0 1.795-2.117V30.051a2.15 2.15 0 0 0-2.574-2.107c-.622.125-1.248.258-1.873.397v-4.577a104.433 104.433 0 0 1 21.577-2.258h6.67v38.875a1.68 1.68 0 1 0 3.36 0V23.329h3.576zm-107.954 0V23.33H6.85v55.244a3.114 3.114 0 0 0 3.11 3.11h6.922c13.059 0 25.847 2.414 38.008 7.176l.683.268v2.919a122.196 122.196 0 0 0-44.438-8.33zm52.297 1.805a107.162 107.162 0 0 0-38.691-7.196H10.21v-2.688h6.671c13.06 0 25.848 2.414 38.01 7.176l.682.267zm3.36-2.44l.683-.268a103.838 103.838 0 0 1 38.009-7.176h6.671v2.688h-6.671c-13.287 0-26.301 2.42-38.692 7.197zm-1.68-79.508l13.755 7.941-13.755 7.942-13.755-7.942zM66.772 37.6l7.765-4.483c.517-.299.925-.74 1.186-1.258.47-.11.941-.216 1.412-.318v12.646A117.901 117.901 0 0 0 66.772 46.5zm-7.84-15.237l13.756-7.941v15.883l-13.755 7.942zm-17.114 7.942V14.423l13.755 7.941v15.884zm-3.035 1.554c.261.518.67.96 1.187 1.258l7.764 4.483v8.9a117.835 117.835 0 0 0-10.363-2.313V31.542c.471.102.942.209 1.412.318zm72.493-11.89h-3.9a3.114 3.114 0 0 0-2.83-1.823h-6.921c-7.237 0-14.485.735-21.577 2.186v-8.045a3.023 3.023 0 0 0-1.511-2.617L58.765.565a3.028 3.028 0 0 0-3.023 0L39.97 9.67a3.022 3.022 0 0 0-1.512 2.617v8.045a107.803 107.803 0 0 0-21.577-2.186h-6.92c-1.256 0-2.34.748-2.831 1.822h-3.9a3.318 3.318 0 0 0-3.314 3.314v60.478a3.318 3.318 0 0 0 3.314 3.314h7.905c24.904 0 43.125 8.168 44.145 8.464a5.41 5.41 0 0 0 3.946 0c1.027-.298 18.795-8.464 44.145-8.464h7.905a3.318 3.318 0 0 0 3.314-3.314V23.283a3.318 3.318 0 0 0-3.314-3.314z"/></g><g><path fill="#fff" d="M47.734 68.631a115.388 115.388 0 0 0-10.363-2.369V53.297c3.479.665 6.955 1.508 10.363 2.514zm1.836-15.777a112.338 112.338 0 0 0-13.036-3.128 2.15 2.15 0 0 0-2.523 2.117v15.438c0 1.048.75 1.938 1.785 2.115 4.214.721 8.436 1.697 12.547 2.902a2.159 2.159 0 0 0 1.892-.342 2.157 2.157 0 0 0 .859-1.718V54.91c0-.953-.613-1.78-1.524-2.056z"/></g><g><path fill="#fff" d="M29.903 26.834c-4.294-.564-8.66-.848-13.065-.848a2.15 2.15 0 0 0-2.148 2.149v4.449a1.68 1.68 0 1 0 3.36 0v-3.231c3.466.042 6.942.27 10.362.68v12.933c-3.425-.333-6.9-.518-10.363-.55v-1.993a1.68 1.68 0 1 0-3.36 0v3.2c0 1.189.963 2.147 2.148 2.147h.078c4.17 0 8.367.227 12.477.674a2.148 2.148 0 0 0 2.38-2.134V28.965a2.155 2.155 0 0 0-1.87-2.131z"/></g><g><path fill="#fff" d="M28.412 65.01a116.602 116.602 0 0 0-10.363-.567V51.375c3.466.036 6.942.236 10.363.596zm1.457-16.258a114.34 114.34 0 0 0-13.032-.742 2.153 2.153 0 0 0-2.147 2.15v15.489a2.15 2.15 0 0 0 2.148 2.148c4.155 0 8.35.225 12.547.694a2.148 2.148 0 0 0 2.386-2.133v-15.47a2.149 2.149 0 0 0-1.902-2.136z"/></g><g><path fill="#fff" d="M77.135 66.262a115.353 115.353 0 0 0-10.363 2.37v-12.82a109.141 109.141 0 0 1 10.363-2.515zm.836-16.535a112.283 112.283 0 0 0-13.033 3.126 2.137 2.137 0 0 0-1.526 2.058v15.328c0 .672.322 1.314.86 1.717.529.397 1.235.535 1.892.342a111.822 111.822 0 0 1 12.546-2.902 2.142 2.142 0 0 0 1.785-2.115V51.844a2.15 2.15 0 0 0-2.524-2.117z"/></g><g><path fill="#fff" d="M96.457 42.415c-3.463.033-6.938.218-10.363.55V30.033c3.42-.41 6.896-.637 10.363-.68zm1.211-16.429c-4.4 0-8.766.284-13.064.847a2.155 2.155 0 0 0-1.87 2.132V44.31a2.148 2.148 0 0 0 2.38 2.134c4.11-.447 8.308-.674 12.477-.674h.078c.573 0 1.11-.223 1.516-.626a2.13 2.13 0 0 0 .631-1.52v-15.49a2.15 2.15 0 0 0-2.148-2.148z"/></g><g><path fill="#fff" d="M96.457 64.443c-3.462.035-6.937.225-10.363.567V51.97c3.421-.36 6.897-.56 10.363-.596zm1.212-16.433c-4.558 0-8.892.264-13.032.742a2.15 2.15 0 0 0-1.903 2.136v15.47a2.148 2.148 0 0 0 2.386 2.133 113.05 113.05 0 0 1 12.548-.694 2.15 2.15 0 0 0 2.148-2.149V50.16a2.152 2.152 0 0 0-2.147-2.15z"/></g><g><path fill="#fff" d="M65.213 25.204L68.51 23.3a1.68 1.68 0 0 0-1.68-2.91l-3.296 1.904a1.68 1.68 0 0 0 1.68 2.91z"/></g></g></g></svg>