<svg xmlns="http://www.w3.org/2000/svg" width="17" height="18" viewBox="0 0 17 18"><g><g><path fill="#fff" d="M11.92 4.013a.427.427 0 0 1-.428.428h-1.425a.427.427 0 0 1-.427-.428V2.59c0-.236.191-.428.427-.428h1.425c.236 0 .427.192.427.428zm0 3.42a.427.427 0 0 1-.428.427h-1.425a.427.427 0 0 1-.427-.427V6.008c0-.236.191-.427.427-.427h1.425c.236 0 .427.191.427.427zm0 3.42a.427.427 0 0 1-.428.427h-1.425a.427.427 0 0 1-.427-.428V9.427c0-.236.191-.427.427-.427h1.425c.236 0 .427.191.427.427zm-2.28 6.125H7.36v-2.992c0-.236.191-.427.428-.427h1.424c.236 0 .428.191.428.427zM6.933 11.28H5.508a.427.427 0 0 1-.427-.428V9.427c0-.236.19-.427.427-.427h1.425c.236 0 .427.191.427.427v1.425a.427.427 0 0 1-.427.428zM5.08 6.008c0-.236.19-.427.427-.427h1.425c.236 0 .427.191.427.427v1.425a.427.427 0 0 1-.427.427H5.508a.427.427 0 0 1-.427-.427zm0-3.42c0-.235.19-.427.427-.427h1.425c.236 0 .427.192.427.428v1.424a.427.427 0 0 1-.427.428H5.508a.427.427 0 0 1-.427-.428zm10.97 14.39h-.712V.737a.855.855 0 0 0-.855-.855H2.516a.855.855 0 0 0-.855.855v16.241H.95a.427.427 0 0 0-.428.428v.712h15.957v-.712a.427.427 0 0 0-.427-.428z"/></g></g></svg>