<svg xmlns="http://www.w3.org/2000/svg" width="22" height="15" viewBox="0 0 22 15"><g><g><g><path fill="#fff" d="M21.523 1.83L15.91 7.547a.1.1 0 0 0 0 .146l3.928 4.184a.677.677 0 0 1-.48 1.158.684.684 0 0 1-.48-.199l-3.912-4.168a.107.107 0 0 0-.151 0l-.955.97a4.2 4.2 0 0 1-2.994 1.263c-1.153.005-2.249-.48-3.057-1.299L6.89 8.67a.107.107 0 0 0-.151 0l-3.913 4.167a.684.684 0 0 1-.96 0 .677.677 0 0 1 0-.96l3.928-4.183a.111.111 0 0 0 0-.146L.177 1.83A.103.103 0 0 0 0 1.903v11.44c0 .917.751 1.669 1.67 1.669h18.36c.919 0 1.67-.752 1.67-1.67V1.902c0-.093-.115-.135-.177-.072z"/></g><g><path fill="#fff" d="M10.85 9.54c.772 0 1.497-.303 2.04-.856l8.184-8.33a1.64 1.64 0 0 0-1.033-.366H1.664c-.391 0-.751.136-1.033.366l8.185 8.33a2.836 2.836 0 0 0 2.034.856z"/></g></g></g></svg>