<svg xmlns="http://www.w3.org/2000/svg" width="19" height="19" viewBox="0 0 19 19"><g><g><path fill="#fff" d="M18.46 14.883c-.727-.727-2.474-1.82-3.335-2.231-1-.48-1.366-.47-2.074.04-.589.425-.97.82-1.648.672-.677-.143-2.014-1.158-3.31-2.45-1.297-1.296-2.306-2.632-2.45-3.31-.143-.683.253-1.059.673-1.648.51-.707.525-1.074.04-2.073-.41-.866-1.5-2.608-2.232-3.335-.727-.728-.89-.57-1.291-.426 0 0-.594.238-1.183.628-.727.485-1.133.891-1.42 1.5-.282.609-.609 1.742 1.054 4.701 1.34 2.39 2.657 4.201 4.612 6.151l.005.005.005.005c1.954 1.955 3.76 3.27 6.15 4.612 2.96 1.663 4.093 1.336 4.702 1.054.608-.282 1.014-.688 1.5-1.42.39-.59.628-1.183.628-1.183.143-.4.306-.564-.426-1.292z"/></g></g></svg>